<?xml version="1.0" encoding="UTF-8"?>
<svg width="160px" height="43px" viewBox="0 0 160 43" version="1.1" xmlns="http://www.w3.org/2000/svg" xmlns:xlink="http://www.w3.org/1999/xlink">
    <!-- Generator: Sketch 42 (36781) - http://www.bohemiancoding.com/sketch -->
    <title>LOGO</title>
    <desc>Created with Sketch.</desc>
    <defs></defs>
    <g id="Symbols" stroke="none" stroke-width="1" fill="none" fill-rule="evenodd">
        <g id="Hero" transform="translate(-193.000000, -14.000000)" fill="#FFFFFF">
            <g id="LOGO">
                <g transform="translate(193.000000, 14.000000)">
                    <path d="M112.836401,14.3994465 C114.298259,14.1605438 114.655721,16.80971 113.081823,16.703531 C111.481248,16.9530517 111.29985,14.6383493 112.836401,14.3994465 Z M123.629609,14.5427882 C124.200481,14.2242512 124.856717,14.3622839 125.475606,14.3675928 C125.283537,17.7175405 125.806391,21.1365046 125.14482,24.4439806 C124.115117,28.043449 118.593135,28.473474 116.656439,25.4579902 C114.815779,22.9415477 116.272302,18.7421679 119.468115,18.2696714 C120.935309,17.8024837 122.311803,18.6572247 123.544246,19.3367704 C123.517569,17.7440853 123.378853,16.1301644 123.629609,14.5427882 Z M119.521468,20.0959503 C117.275328,21.0621792 117.334016,24.9111683 119.740213,25.6119497 C121.415481,26.2490238 123.554916,25.0545099 123.522905,23.1857594 C124.008412,21.0515613 121.458163,18.9969976 119.521468,20.0959503 Z M154.00318,16.7088399 C153.827117,15.8116273 154.979531,15.9071884 155.534397,15.8169363 C155.81183,16.6557504 155.907864,17.5476541 156.201303,18.3864683 C157.257682,18.4979562 158.324732,18.4926473 159.386446,18.5351189 C159.397117,18.9332901 159.429128,19.7296327 159.445134,20.127804 C158.255374,20.1490398 157.070948,20.1649666 155.891858,20.1808935 C155.918535,21.7629607 155.747807,23.3768816 156.067922,24.937713 C156.617452,26.1587716 158.143333,25.5376244 159.162366,25.5004618 C159.370441,25.7022019 159.791925,26.1109911 160,26.3127312 L160,26.6100324 C158.212692,27.6771314 155.102242,28.0699937 154.163238,25.7393645 C153.720412,22.7610434 153.949828,19.7083969 154.00318,16.7088399 Z M101.061507,19.267754 C101.2269,18.4342488 102.037858,18.3227609 102.747446,18.524501 C103.79849,19.4110957 104.646795,20.5153574 105.575128,21.5240579 C106.834247,20.1808935 107.997331,17.5795078 110.259476,18.7580948 C109.117733,20.1437308 107.901296,21.4709684 106.780894,22.8778403 C108.066689,24.3271837 109.411172,25.7234377 110.606267,27.2524154 C109.853997,27.2524154 109.107062,27.2205617 108.360128,27.1515453 C107.255731,26.3605117 106.498126,25.1713068 105.569793,24.19446 C104.737494,25.1659979 103.931871,26.1534627 103.15826,27.1674722 C102.357973,27.1940169 101.557686,27.2152527 100.757398,27.2364885 C101.899141,25.792454 103.110243,24.3962001 104.353356,23.0317998 C103.216948,21.8160502 101.947159,20.6905527 101.061507,19.267754 Z M127.679063,20.1649666 C128.943517,17.5954347 132.779561,17.6432152 134.641563,19.5491284 C135.809982,18.736859 137.154465,17.9033538 138.659005,18.195346 C140.120863,18.3333788 141.742779,19.373933 141.758785,20.977236 C141.87616,23.0636535 141.769455,25.15538 141.806802,27.2417975 C141.166572,27.2258706 140.531677,27.2099438 139.896783,27.1940169 C139.854101,25.1394531 140.120863,23.0583446 139.747396,21.0250166 C139.027137,19.3314614 136.370183,19.5385105 135.804647,21.2373746 C135.415174,23.1804504 135.676601,25.1872337 135.660595,27.1568543 C134.988354,27.1674722 134.321448,27.1780901 133.654542,27.188708 C133.633201,25.2031605 133.867952,23.1857594 133.521161,21.2161388 C132.886266,19.5119657 130.320011,19.379242 129.519724,21.0462524 C129.204944,23.0742714 129.413019,25.1447621 129.391678,27.188708 C128.762119,27.2099438 128.137895,27.2258706 127.513671,27.2471064 C127.454983,24.8899325 127.214897,22.4955959 127.679063,20.1649666 Z M144.004924,18.949217 C146.037654,18.200655 148.42251,17.6803779 150.380547,18.9226722 C153.181552,20.6958617 152.850767,25.4155186 149.921715,26.8967157 C148.129072,27.7673836 145.541476,27.7408388 144.186323,26.1109911 C143.193967,25.0226562 143.58344,23.0530356 144.965269,22.479669 C146.672549,21.725798 148.598573,21.8797576 150.423229,21.7788875 C149.473554,19.4110957 146.688554,19.4535673 144.666495,20.3136172 C144.442415,19.8570475 144.22367,19.4004778 144.004924,18.949217 Z M146.069666,23.5042964 C145.866926,23.8387603 145.461447,24.5183059 145.258708,24.8580788 C145.872261,25.2827948 146.341763,26.1375358 147.200738,26.0472837 C149.014723,26.3976744 150.449905,24.6351029 150.364541,22.9362387 C148.924024,23.0689625 147.494177,23.2494668 146.069666,23.5042964 Z M1.02559397,20.3826336 C0.300000143,19.6765432 1.38839088,18.73155 2.10331421,18.6466068 C4.16272021,18.312143 6.79299783,18.4077041 8.08946327,20.3029993 C7.90806481,22.6017749 7.66797862,24.9642578 8.39357245,27.2046348 L8.47360118,27.5497166 C6.3074902,27.4807003 4.14137922,27.5762614 1.97526824,27.5497166 C0.0385729555,26.9975858 -0.713697114,24.3165658 0.817519268,22.9521656 C2.50345786,21.6780175 4.78694431,22.3257094 6.7343101,22.1717499 C6.21145572,19.3367704 3.07432948,20.0906413 1.02559397,20.3826336 Z M2.39141764,23.4352801 C2.12999045,24.19446 1.92191575,24.9748757 1.78319929,25.7659093 C2.09797896,25.9623404 2.72220306,26.3498938 3.03698273,26.541016 C4.23207845,26.5622518 5.42183891,26.5569429 6.61693462,26.546325 C6.62760512,25.4686081 6.63294037,24.3908911 6.64361087,23.3184832 C5.22443471,23.339719 3.8105938,23.3821906 2.39141764,23.4352801 Z M11.2692715,19.060705 C13.0352388,18.2484356 15.1853441,18.3386877 16.9886581,18.9969976 C17.8529684,19.2412093 17.9650086,20.1490398 17.6235527,20.8551302 C15.8522502,20.0587876 13.8782081,19.5225836 11.9841948,20.2711456 C11.9575186,20.770187 11.9308423,21.2745373 11.9095014,21.7735786 C13.6541277,22.2513841 15.5321352,22.2301483 17.2020681,22.9734014 C18.9520297,23.8069066 18.6105737,26.5781787 16.9086294,27.2577243 C14.6091372,28.361986 11.9468481,27.6771314 9.68470264,26.8223904 C9.96213557,26.4136012 10.2449038,25.9995031 10.5223367,25.5907139 C12.3203155,26.333967 14.2890223,26.4985444 16.1777003,26.0366657 C16.1990413,25.5163886 16.2150471,24.9961115 16.2363881,24.4758343 C14.5077675,24.0139557 12.6297599,24.0298825 11.0025091,23.2547758 C9.37525821,22.3469452 9.63135015,19.803958 11.2692715,19.060705 Z M20.3605353,19.9313728 C20.824702,18.4023951 22.649357,18.4661025 23.9458225,18.5138831 C25.4396921,18.5138831 26.9122207,19.161575 27.8138778,20.3613978 C27.904577,22.7026449 27.861895,25.049201 27.8512245,27.395757 C25.7918185,27.4541555 23.7324125,27.5656435 21.6676713,27.5444077 C19.3841848,27.0400574 18.8720009,23.3556458 21.1448169,22.5327585 C22.7667325,21.9063024 24.5647113,22.2407662 26.2613204,22.1770588 C26.1546154,20.1915114 24.0258512,19.7190148 22.4146061,20.1702756 C21.7370295,20.1012592 20.7073265,20.8498212 20.3605353,19.9313728 Z M21.4595966,25.9729583 C22.9801424,26.7002845 24.6820868,26.6259592 26.3253434,26.5675608 C26.3253434,25.4845349 26.3253434,24.3962001 26.3306786,23.3078653 C24.9808607,23.3291011 23.615037,23.2600847 22.2758896,23.4989875 C21.2515219,23.8599961 21.6730065,25.1713068 21.4595966,25.9729583 Z M30.070688,21.2108299 C31.1163967,17.6432152 37.2465975,17.5529631 38.4256875,21.0674882 C38.8044901,23.2016862 38.521722,25.3942828 38.6124212,27.5497166 C38.1055726,27.5497166 37.0972105,27.5444077 36.5956972,27.5444077 C36.5370094,25.5057707 36.8197776,23.4299711 36.4089635,21.4231879 C35.5286474,19.5332015 32.2634752,19.9419907 31.9060135,22.0177903 C31.7352856,23.8599961 31.8633316,25.7181287 31.8579963,27.5709524 C31.2177665,27.5603345 30.5828719,27.5497166 29.9479773,27.5390987 C30.0173355,25.4314454 29.8306018,23.3078653 30.070688,21.2108299 Z M112.16416,18.5404278 C112.783049,18.4554846 113.407273,18.4023951 114.036832,18.3758504 C114.058173,21.3435536 114.036832,24.3059479 114.058173,27.2736512 C113.364591,27.289578 112.676344,27.3001959 111.982762,27.3108138 C112.100137,24.3962001 111.721334,21.4284968 112.16416,18.5404278 Z M8.08946327,20.3029993 C8.66033488,22.5539943 8.54295941,24.9058593 8.39357245,27.2046348 C7.66797862,24.9642578 7.90806481,22.6017749 8.08946327,20.3029993 Z M27.8138778,20.3613978 C28.5608126,22.7026449 28.096646,25.1872337 28.2353624,27.5921882 C26.0639162,27.9425789 23.8177765,28.144319 21.6676713,27.5444077 C23.7324125,27.5656435 25.7918185,27.4541555 27.8512245,27.395757 C27.861895,25.049201 27.904577,22.7026449 27.8138778,20.3613978 Z M1.97526824,27.5497166 C4.14137922,27.5762614 6.3074902,27.4807003 8.47360118,27.5497166 C6.34483694,28.0646848 4.10403248,28.1018474 1.97526824,27.5497166 Z" id="Combined-Shape"></path>
                    <path d="M54.3802359,28.9236158 C54.8815613,28.6454245 55.4011066,28.4003512 55.9167872,28.1497582 C55.9653738,28.1933636 56.0134082,28.2375209 56.0614427,28.2822303 C55.5032489,28.5019131 54.9472636,28.7276675 54.3802359,28.9236158 L54.3802359,28.9236158 Z" id="Shape"></path>
                    <path d="M72.3721857,27.6281495 C72.6355472,27.5773686 72.8862099,27.469735 73.1539883,27.4404808 C73.3113426,27.6154543 73.377045,27.8478323 73.4786351,28.0553719 C74.953901,31.0713188 76.4319275,34.0850579 77.9011201,37.1037647 C78.0275557,37.3631891 78.1418446,37.6297891 78.2980947,37.8737585 C78.1495743,37.3405585 77.9176837,36.8366128 77.7299628,36.3172119 C77.0928157,34.6811821 76.466159,33.0412886 75.824595,31.4074667 C75.6672407,30.969205 75.4695816,30.5458464 75.3409375,30.0976493 C75.7539236,30.201971 76.1514503,30.3598335 76.5556025,30.4939615 C78.2196936,31.069111 79.8832326,31.6453644 81.5522928,32.2056107 C81.7124077,32.2436965 81.7709325,32.4081826 81.8349785,32.5406546 C82.2330573,33.4823101 82.6659198,34.4085105 83.093261,35.3369188 C83.1804961,35.5361788 83.2820862,35.7536538 83.216936,35.9755444 C83.1092725,36.3729606 82.9579915,36.7576815 82.8221699,37.1462662 C82.3832341,38.3898475 81.960862,39.6389485 81.5213741,40.8819779 C81.4076372,41.1960471 81.3275798,41.5310909 81.1288164,41.8054185 C80.89803,42.1145199 80.586082,42.3700806 80.2178176,42.4948251 C79.7788818,42.6648309 79.2797649,42.6239853 78.8480067,42.4517717 C77.1662478,41.7833398 75.4949791,41.0895175 73.8187413,40.4078384 C73.6724294,40.3449142 73.5106581,40.2880616 73.4118286,40.1561415 C73.3063736,40.0126301 73.2423276,39.8442802 73.1672392,39.6847618 C71.7781041,36.5700128 70.356946,33.4696149 68.9578727,30.3592816 C68.8457923,30.0832981 68.6094847,29.7940675 68.7364724,29.4833102 C68.9164637,29.0373209 69.1086016,28.5962994 69.2869365,28.1503102 C69.3647855,27.9714729 69.4199975,27.7793884 69.532078,27.6182141 C70.1118045,27.6927296 70.6937395,27.8285135 71.2822999,27.7760766 C71.6472515,27.7401988 72.0149638,27.7159123 72.3721857,27.6281495 L72.3721857,27.6281495 Z" id="Shape"></path>
                    <path d="M86.0277813,27.1473864 C86.7587889,27.4250257 87.4588776,27.7766286 88.1744257,28.0901458 C87.5577072,27.9179321 86.9492704,27.7159123 86.3474591,27.4978853 C86.4230996,27.4829822 86.4987401,27.4680791 86.5749327,27.45428 C86.3850033,27.3654133 86.1983866,27.2688191 86.0277813,27.1473864 L86.0277813,27.1473864 Z" id="Shape"></path>
                    <path d="M63.5774587,25.6349972 C64.2598796,25.3231359 64.9632811,25.0532241 65.6545359,24.7601297 C66.2955478,25.8116266 67.2457471,26.6605516 68.3549572,27.1937516 C67.1783884,30.6667271 65.9731094,34.1308712 64.7849462,37.5999829 C64.6866687,37.915156 64.5624416,38.2220496 64.4829363,38.5432943 C65.6799335,35.9115163 66.8200622,33.2532439 68.0071213,30.6164981 C68.9783012,32.5881238 69.9378866,34.5652691 70.906858,36.5374467 C70.9510276,36.615274 70.9515797,36.7052446 70.9156919,36.7874877 C70.5093312,37.8682388 70.0985536,38.947886 69.6905366,40.0286371 C69.5955719,40.3515378 69.2400063,40.4453721 68.97278,40.581156 C67.4064142,41.330727 65.847226,42.0957531 64.2836208,42.8502918 C64.0075606,42.996011 63.6911955,43.0076023 63.386425,42.9971149 C62.6741896,43.0175377 62.0232396,42.5108321 61.759326,41.8666868 C61.0492991,40.2008508 60.3585964,38.5272873 59.6491216,36.8614513 C59.5795544,36.6964132 59.4983927,36.5192318 59.5431144,36.3365308 C59.6043998,36.0853858 59.7186887,35.8513519 59.8059238,35.6084865 C60.6081548,33.4701668 61.420324,31.335711 62.2242114,29.1979433 C62.6802629,28.0123185 63.1087084,26.8151023 63.5774587,25.6349972 L63.5774587,25.6349972 Z" id="Shape"></path>
                    <path d="M85.9499324,21.6713231 C86.1740933,21.5388511 86.420339,21.6680113 86.6395308,21.7425268 C87.6200968,22.1123446 88.5951415,22.4965136 89.5801245,22.8547401 C89.7910345,22.9193202 89.8871034,23.1312755 89.9782033,23.3128726 C90.7544847,24.9411748 91.5467776,26.5617495 92.332445,28.1856361 C92.4511509,28.45334 92.5400423,28.7392588 92.5560538,29.0329052 C92.5350732,29.5368509 92.3429353,30.0485242 91.9652849,30.3935035 C91.635669,30.6998451 91.2127447,30.8726108 90.7992065,31.0326812 C89.3769441,31.6265975 87.9568903,32.2243776 86.5351801,32.8193979 C86.3546367,32.8928095 86.1812708,33.000443 85.984716,33.0225217 C85.7202502,32.9910596 85.4822863,32.8607954 85.2349364,32.7713768 C83.3853328,32.1101205 81.5589182,31.3864919 79.719805,30.6965333 C79.1914257,30.468571 78.6348882,30.3151242 78.1043005,30.0932335 C77.1772902,29.7245197 76.2364769,29.3922356 75.3056018,29.0351131 C75.0969002,28.9644613 75.0350627,28.736499 74.9550053,28.5565578 C74.7341571,27.9963114 74.476869,27.4504162 74.2770013,26.8824423 C74.6270457,26.6335052 74.9853719,26.3922957 75.2923509,26.0898179 C75.7230049,25.6675632 76.1426164,25.2188142 76.4253021,24.6806465 C76.5152977,24.5084328 76.6251697,24.3478104 76.7339374,24.1871881 C77.2899228,24.3599537 77.8298966,24.5807405 78.3869861,24.7501943 C79.6640408,25.1851442 80.93447,25.6399649 82.2164937,26.0622195 C83.5885131,26.554022 84.9770961,27.0011152 86.3474591,27.4978853 C86.9492704,27.7159123 87.5577072,27.9179321 88.1744257,28.0901458 C87.4588776,27.7766286 86.7587889,27.4250257 86.0277813,27.1473864 C84.9759919,26.687046 83.9352448,26.2002112 82.8735171,25.7630535 C82.3098021,25.4986614 81.7389095,25.2524841 81.1696733,25.0013392 C80.8334319,24.8567239 80.4949821,24.7143164 80.1841383,24.5205761 C81.2740241,23.9261078 82.4064232,23.4127786 83.5255714,22.8751628 C84.3228333,22.4529082 85.1465971,22.0814345 85.9499324,21.6713231 L85.9499324,21.6713231 Z" id="Shape"></path>
                    <path d="M62.7238805,19.2012714 C62.8398258,19.1300677 62.9684698,19.1885761 63.0811024,19.2354933 C63.6956125,19.5031973 64.3189565,19.7499264 64.9384357,20.0049351 C64.6634797,21.2054631 64.7076493,22.4849223 65.1333342,23.6457086 C63.1484611,24.6359371 61.1459202,25.5902879 59.1582865,26.5738928 C58.0755782,27.0943976 57.002256,27.6342212 55.9167872,28.1497582 C55.4011066,28.4003512 54.8815613,28.6454245 54.3802359,28.9236158 C54.9472636,28.7276675 55.5032489,28.5019131 56.0614427,28.2822303 C58.1926277,27.4575918 60.3205,26.6263297 62.4555499,25.8121785 C61.7676078,27.8831582 61.0360482,29.9397868 60.3403764,32.0080066 C60.3138746,32.134959 60.2172535,32.2199619 60.0996519,32.2641192 C59.0622175,32.734395 58.0220225,33.1991511 56.9867966,33.6738426 C56.8117744,33.7654691 56.6096984,33.7433904 56.4319156,33.6743946 C54.7137167,33.0699909 52.9899965,32.4821461 51.2712455,31.8799503 C50.9140236,31.7574136 50.5728131,31.5592575 50.3403704,31.2562277 C49.9207588,30.7456584 49.8175123,30.0093346 50.054372,29.3960994 C50.7522523,27.6822423 51.4534453,25.9689371 52.1474607,24.2534241 C52.2170279,24.0834183 52.3103362,23.9018212 52.4908796,23.8300655 C55.9013278,22.2856622 59.3156408,20.7500904 62.7238805,19.2012714 L62.7238805,19.2012714 Z" id="Shape"></path>
                    <path d="M70.5325203,17.0944138 C71.511982,16.9895401 72.5289879,17.2064631 73.363242,17.7346954 C74.1588476,18.2176664 74.7866085,18.9628217 75.1377572,19.823338 C75.5071258,20.7097968 75.5628899,21.7154805 75.3271345,22.6433368 C75.0808887,23.6285976 74.4674829,24.5106407 73.647584,25.1062129 C72.2518234,26.1461185 70.2277498,26.2520961 68.7442021,25.3330713 C67.9905576,24.8914978 67.378256,24.2158904 67.0077832,23.4249218 C66.5881716,22.5428788 66.4650488,21.5200842 66.6792715,20.5651815 C66.8912858,19.5799206 67.4522402,18.6724871 68.2423246,18.0449008 C68.8938267,17.5172205 69.701579,17.1926639 70.5325203,17.0944138 L70.5325203,17.0944138 Z" id="Shape"></path>
                    <path d="M55.6153294,10.1672297 C55.8146449,10.0877464 56.0321803,9.99170421 56.2502679,10.0562843 C56.6257098,10.1583982 56.9796191,10.3250922 57.3456749,10.4564603 C60.3514188,11.5885444 63.3527457,12.7322197 66.3618023,13.8565762 C66.5329596,13.9217083 66.7146072,13.9702814 66.8686488,14.0734992 C66.9851463,14.1734052 67.0237947,14.3312677 67.084528,14.4670516 C67.295438,15.0361294 67.5853012,15.5748491 67.7525937,16.1599339 C67.4594178,16.3663696 67.1540951,16.5601099 66.89239,16.8073911 C66.4876857,17.1959758 66.0829814,17.5939439 65.78318,18.0719472 C65.6219608,18.3059811 65.5231313,18.5775488 65.3492133,18.8021993 C65.1465851,18.8137906 64.9588641,18.7232681 64.7711432,18.6619997 C63.1953913,18.1144486 61.617431,17.5735211 60.0389186,17.0353534 C59.4304818,16.8062871 58.7994081,16.642905 58.1953884,16.4005915 C57.4251803,16.1389592 56.658285,15.8673915 55.8869727,15.609623 C55.297308,15.4037393 54.7104039,15.1879203 54.1091447,15.0168106 C54.5028066,15.2188304 54.9064067,15.4015315 55.3127674,15.5748491 C57.0629893,16.3487066 58.8104506,17.1269799 60.5639852,17.8931099 C61.0067858,18.1000975 61.4667021,18.2706552 61.901221,18.4958577 C61.0713839,18.9523343 60.2001378,19.3293277 59.3559456,19.7582059 C58.2726852,20.2676714 57.2065406,20.8141186 56.1299057,21.3373831 C55.9786247,21.4174183 55.8019461,21.4455687 55.6423833,21.3721571 C54.7529172,21.0277297 53.8590342,20.6937898 52.9668075,20.35709 C52.6559637,20.2389691 52.2711357,20.1550701 52.1220632,19.8194743 C51.4026502,18.3153646 50.6694342,16.8173265 49.9422915,15.3170805 C49.7678215,14.9555422 49.5651933,14.593452 49.5199194,14.1877563 C49.4475916,13.6076392 49.6767216,13.0054433 50.1073756,12.6118909 C50.4104897,12.3292839 50.8096728,12.1907402 51.1851147,12.0328777 C51.7615285,11.8076752 52.3235871,11.5482508 52.8966882,11.3153208 C53.7994052,10.9239762 54.715373,10.5635419 55.6153294,10.1672297 L55.6153294,10.1672297 Z" id="Shape"></path>
                    <path d="M85.0648832,9.35859822 C85.2481872,9.26255598 85.457993,9.30836923 85.6429534,9.37350132 C87.2833033,9.945339 88.9258617,10.511657 90.5673159,11.0812868 C90.8908585,11.1916802 91.2149532,11.3247042 91.4805231,11.544939 C92.0608017,12.045021 92.2788893,12.9171286 91.9851612,13.6280619 C91.3055009,15.3336395 90.5932655,17.0265219 89.9108446,18.7315476 C89.8280266,18.9462627 89.683371,19.1455227 89.4641792,19.2354933 C88.5349604,19.6748589 87.5880738,20.0766908 86.653886,20.5050171 C84.2361504,21.6133666 81.8062682,22.6946697 79.3852199,23.7952916 C79.1919778,23.8847102 78.9838284,23.805227 78.8049413,23.7229839 C78.2517166,23.4768067 77.6819283,23.271475 77.1292557,23.0241939 C77.1921974,22.5445347 77.3042779,22.0692912 77.2844016,21.5824564 C77.3097991,20.8323335 77.153549,20.0921459 76.9282838,19.3806606 C78.8888636,18.4141666 80.8538604,17.4559521 82.8205135,16.5021534 C84.4205587,15.7067691 86.0388238,14.9483667 87.6272744,14.1303518 C86.6682411,14.4582201 85.7351575,14.8578441 84.7855103,15.209999 C83.4631818,15.7310557 82.1320193,16.2300337 80.8091386,16.7494346 C80.4132683,16.9023294 80.0229191,17.0717832 79.6160063,17.1943199 C79.7733606,16.6103389 79.9892397,16.0445729 80.187451,15.4743911 C80.677734,14.0022955 81.2044569,12.5428951 81.6914272,11.0702475 C81.7289714,10.9587502 81.7720368,10.8301419 81.8962639,10.7898483 C82.9530224,10.3140529 84.0130937,9.84488103 85.0648832,9.35859822 L85.0648832,9.35859822 Z" id="Shape"></path>
                    <path d="M60.7141619,1.63326996 C60.9813883,0.885354853 61.7714726,0.377545337 62.5621092,0.434397924 C62.9524583,0.451508897 63.3080239,0.628138294 63.6635895,0.772753613 C65.0886124,1.35342276 66.5141875,1.932436 67.9375541,2.51586498 C68.161715,2.61577098 68.4201074,2.66931177 68.601755,2.84428526 C68.7640784,3.04961694 68.8380626,3.30793743 68.9517994,3.54086745 C70.3580502,6.64623304 71.7587799,9.75325453 73.1672392,12.8575162 C73.2345979,13.0208984 73.3323232,13.1760011 73.363242,13.3520785 C73.3411571,13.477375 73.2842887,13.592736 73.2373585,13.709753 C72.9905606,14.2793828 72.7741294,14.8611559 72.5146328,15.425266 C71.3242611,15.1305157 70.049967,15.2044793 68.8960352,15.6179025 C68.2252088,14.2821427 67.5830927,12.9314797 66.9216524,11.5907522 C65.9195538,9.53743548 64.9135903,7.48632661 63.9137001,5.43190593 C63.8341947,5.26962767 63.7524809,5.10790138 63.6553077,4.95555853 C63.7049985,5.15868233 63.780639,5.35463057 63.8573838,5.54892291 C64.7711432,7.89257422 65.6716517,10.2417452 66.585411,12.5853965 C66.6279243,12.7002056 66.6649164,12.8161187 66.7013563,12.9331356 C64.6585106,12.260288 62.6322285,11.5361075 60.5932476,10.8505647 C60.4612908,10.8141348 60.3287819,10.7490028 60.2851643,10.6088032 C59.8219353,9.58159283 59.3576019,8.55493446 58.8899559,7.52993199 C58.7994081,7.35164669 58.7822924,7.14300322 58.858485,6.95699038 C59.4823812,5.18407281 60.0897137,3.40563556 60.7141619,1.63326996 L60.7141619,1.63326996 Z" id="Shape"></path>
                    <path d="M78.3245965,0 L78.8695394,0 C79.1803833,0.0954902679 79.4895707,0.220786746 79.7446504,0.427222354 C80.0284403,0.654632703 80.2117443,0.979189221 80.3519829,1.30871344 C81.0415814,2.95633454 81.7328362,4.60340366 82.4301644,6.24716099 C82.5162951,6.4403494 82.5350672,6.66168811 82.4544577,6.85984421 C81.2281981,10.1059614 80.0030428,13.3526305 78.7784396,16.5992996 C78.6906524,16.8267099 78.6255022,17.0635037 78.5128696,17.2798747 C78.41404,17.4675434 78.1926397,17.5260519 78.0137527,17.607743 C77.4660492,17.8141786 76.9349093,18.0614598 76.3866537,18.2667915 C75.8698689,17.4393931 75.1846874,16.708037 74.3454643,16.2029874 C74.1384191,16.076035 73.9054243,15.9877203 73.7237766,15.8221302 C73.7613208,15.4771509 73.926957,15.1625298 74.027995,14.8335576 C74.8881987,12.32818 75.7495066,9.82280235 76.6113667,7.31797671 C76.9299402,6.3669378 77.2783282,5.42528233 77.5737127,4.46651588 C77.2297416,5.16696183 76.9327008,5.88948646 76.6146794,6.60152372 C75.7572363,8.52844005 74.9213259,10.4658438 74.0489756,12.3855845 C73.7370275,11.8595601 73.4968551,11.29545 73.2224512,10.7490028 C72.5483121,9.38178083 71.8890803,8.00683136 71.2088679,6.64292124 C71.1116947,6.47070757 71.1089341,6.26592787 71.1873352,6.08653863 C71.5754759,5.07367943 71.956439,4.05695647 72.3379542,3.04133743 C72.4207723,2.78908858 72.6521108,2.64005752 72.8817929,2.53518382 C74.2631983,1.88331095 75.6363219,1.21211924 77.0083413,0.540927529 C77.4367868,0.337803722 77.859159,0.107633539 78.3245965,0 L78.3245965,0 Z" id="Shape"></path>
                </g>
            </g>
        </g>
    </g>
</svg>